<?xml version="1.0" encoding="utf-8"?>
<!-- Generator: Adobe Illustrator 18.1.1, SVG Export Plug-In . SVG Version: 6.00 Build 0)  -->
<svg version="1.1" id="Layer_1" xmlns="http://www.w3.org/2000/svg" xmlns:xlink="http://www.w3.org/1999/xlink" x="0px" y="0px"
	 viewBox="0 0 1080 254.2" enable-background="new 0 0 1080 254.2" xml:space="preserve">
<g>
	<path fill="#35459C" d="M273,135.6c0,0-29,21.9-87.1-21.9c0,0-54.9-46.5-112.3-18.7c0,0-40,22.6-45.8,62.6c0,0,34.8-56.1,79.4-51
		c0,0,32.3,1.9,60.9,20.2C168.1,126.8,225.6,165.6,273,135.6z"/>
	<path fill="#D81F26" d="M54.9,145c0,0,26.9-48.3,92.6-11.9c0,0,54.9,38.1,99.1,31c0,0-28.1,34-106.2-14.2
		C140.4,149.8,91.7,117.2,54.9,145z"/>
	<path fill="#D81F26" d="M131.1,79.1c0,0,30.2-3.4,64.5,22.9c0,0,58.1,41.9,110.4,10.6c0,0-47.1,18-98.7-16.5
		C207.2,96.2,162.7,63,131.1,79.1z"/>
	<g>
		<path fill="#35459C" d="M381.4,108.2c-2.3-1.5-5.1-2.2-8.2-2c-3.2,0.1-5.9,1-8,2.7c-2.3,1.9-3.5,4.4-3.5,7.4c0,2.7,1.8,5,5.3,7
			c2.2,1.1,6.1,2.6,11.8,4.5c9.5,3,16,5.7,19.6,8.1c5.9,4,8.8,9.5,8.8,16.5c0,7.8-3.4,14.1-10.1,18.8c-6.1,4.3-13.6,6.5-22.5,6.7
			c-8.9,0.1-16.5-1.8-22.9-5.9c-7-4.5-10.8-10.6-11.3-18.4l19.3-0.7c0.1,3.1,1.7,5.5,4.7,7.2c2.7,1.6,5.9,2.4,9.7,2.3
			c3.8-0.1,6.9-1,9.5-2.7c2.8-1.8,4.3-4.3,4.3-7.4c0-3.4-5.3-6.8-16-10.1c-9.8-3.1-16.6-6-20.3-8.5c-6.1-4.3-9.2-10.1-9.2-17.4
			c0-7.7,3.1-13.8,9.2-18.5c5.5-4.3,12.4-6.7,20.5-7c8.2-0.4,15.3,1.3,21.4,5.1c6.7,4.2,10.5,10.1,11.6,17.7l-19.1,1.7
			C385.6,112.2,384,109.8,381.4,108.2z"/>
		<path fill="#35459C" d="M486.5,166.2c-5.6,5.2-12.3,8.5-20.1,9.9c-7.7,1.3-15.1,0.6-22.2-2.1c-7.4-2.9-13.4-7.6-17.9-14.2
			c-4.9-7.2-7.3-15.8-7.3-26c0-10.2,2.4-18.9,7.3-26.1c4.5-6.5,10.4-11.2,17.9-14c7.2-2.8,14.6-3.5,22.2-2.1
			c7.8,1.3,14.5,4.6,20.1,9.8V92h19.3v83.6h-19.3V166.2z M480.2,150.4c4-4.5,6-10.1,6-16.6c0-6.5-2-12.1-6-16.6
			c-4.4-5-10.4-7.6-17.9-7.6c-7.4,0-13.4,2.5-17.9,7.6c-4,4.5-6,10.1-6,16.6c0,6.5,2,12.1,6,16.6c4.5,5,10.5,7.6,18,7.6
			C469.9,158,475.8,155.5,480.2,150.4z"/>
		<path fill="#35459C" d="M606.6,92l-44.6,87.5L517.5,92h21.3l23.3,48.8L585.4,92H606.6z"/>
		<path fill="#35459C" d="M697.8,159.4c-9.8,12.1-22.4,18.1-37.9,18.1c-5.7,0-11.2-1-16.6-2.9c-5.4-1.8-10.2-4.5-14.5-8
			c-10.5-8.5-15.7-19.4-15.7-32.8c0-11.8,4.2-21.8,12.6-30.2c8.7-8.7,19.2-13,31.6-13c12.3,0,22.8,4.3,31.5,13c5.2,6,8.7,12,10.4,18
			c1.4,4.8,2.1,11.4,2.1,19.7h-70.1c1.3,5.2,4.1,9.6,8.4,13.1c4,3.1,8.7,5.1,14,6c5.4,0.8,10.6,0.3,15.7-1.5c5.4-1.9,9.9-5,13.4-9.4
			L697.8,159.4z M641.1,112.8c-4.5,3.3-7.7,7.7-9.5,13h50.2c-1.3-5.2-4.5-9.5-9.6-13.1c-4.8-3.4-10-5.1-15.5-5.1
			C651,107.5,645.8,109.3,641.1,112.8z"/>
		<path fill="#35459C" d="M779.4,166.2c-5.6,5.2-12.3,8.5-20.1,9.9c-7.7,1.3-15.1,0.6-22.2-2.1c-7.4-2.9-13.4-7.6-17.9-14.2
			c-4.9-7.2-7.3-15.8-7.3-26c0-10.2,2.4-18.9,7.3-26.1c4.5-6.5,10.4-11.2,17.9-14c7.2-2.8,14.6-3.5,22.2-2.1
			c7.8,1.3,14.5,4.6,20.1,9.8V92h19.3v83.6h-19.3V166.2z M773.1,150.4c4-4.5,6-10.1,6-16.6c0-6.5-2-12.1-6-16.6
			c-4.4-5-10.4-7.6-17.9-7.6c-7.4,0-13.4,2.5-17.9,7.6c-4,4.5-6,10.1-6,16.6c0,6.5,2,12.1,6,16.6c4.5,5,10.5,7.6,18,7.6
			C762.8,158,768.7,155.5,773.1,150.4z"/>
		<path fill="#35459C" d="M872,112c-10.4-4.5-19.1-3.2-26.2,3.9c-4.3,4.3-6.5,9.5-6.6,15.6v44h-19.3V92h19.3v11.6
			c7.7-13.8,21.1-16.9,40.4-9.2L872,112z"/>
		<path fill="#35459C" d="M905.2,100c5.5-4.8,11.9-7.8,19.4-9c7.3-1.2,14.3-0.5,21.1,2.2c7.1,2.8,12.7,7.4,16.9,13.6
			c4.7,6.9,7,15.2,7,24.9v43.9h-19.3v-43.9c0-7-2.4-12.6-7.1-16.7c-4.2-3.7-9.3-5.5-15.4-5.5c-6.1,0-11.2,1.8-15.4,5.5
			c-4.7,4.1-7.1,9.6-7.1,16.6v44h-19.3V92h19.3V100z"/>
		<path fill="#35459C" d="M1026.3,108.2c-2.3-1.5-5.1-2.2-8.2-2c-3.2,0.1-5.9,1-8,2.7c-2.3,1.9-3.5,4.4-3.5,7.4c0,2.7,1.8,5,5.3,7
			c2.2,1.1,6.1,2.6,11.8,4.5c9.5,3,16,5.7,19.6,8.1c5.9,4,8.8,9.5,8.8,16.5c0,7.8-3.4,14.1-10.1,18.8c-6.1,4.3-13.6,6.5-22.4,6.7
			c-8.9,0.1-16.5-1.8-22.9-5.9c-7-4.5-10.8-10.6-11.3-18.4l19.3-0.7c0.1,3.1,1.7,5.5,4.7,7.2c2.7,1.6,5.9,2.4,9.7,2.3
			c3.8-0.1,6.9-1,9.5-2.7c2.8-1.8,4.3-4.3,4.3-7.4c0-3.4-5.3-6.8-16-10.1c-9.8-3.1-16.6-6-20.3-8.5c-6.1-4.3-9.1-10.1-9.1-17.4
			c0-7.7,3-13.8,9.1-18.5c5.5-4.3,12.4-6.7,20.5-7c8.2-0.4,15.3,1.3,21.4,5.1c6.7,4.2,10.5,10.1,11.6,17.7l-19.2,1.7
			C1030.5,112.2,1029,109.8,1026.3,108.2z"/>
	</g>
</g>
</svg>
